# xmcd CD database file
#
# Track frame offsets:
#	150
#	14533
#	28839
#	43437
#	61255
#	75032
#
# Disc length: 1327 seconds
#
# Revision: 0
# Processed by: cddbd v1.5.2PL0 Copyright (c) Steve Scherf et al.
# Submitted via: CDex 1.70beta2
#
DISCID=43052d06
DTITLE=Jesse Dayton - 6 Smash Hits
DYEAR=2004
DGENRE=Country
TTITLE0=Country Soul Brother
TTITLE1=All Because of You
TTITLE2=Just What I Needed
TTITLE3=Tall Walkin' Texas Trash
TTITLE4=One of Them Days
TTITLE5=Talkin' Bobby Dale's Hard Luck Blues
EXTD=YEAR: 2004
EXTT0=
EXTT1=
EXTT2=
EXTT3=
EXTT4=
EXTT5=
PLAYORDER=
